<svg width="30" height="24" viewBox="0 0 30 24" fill="none" xmlns="http://www.w3.org/2000/svg">
<path d="M19.5117 1.39334L28.94 10.8217C29.2525 11.1342 29.428 11.5581 29.428 12C29.428 12.4419 29.2525 12.8658 28.94 13.1783L19.5117 22.6067C19.1973 22.9103 18.7763 23.0783 18.3393 23.0745C17.9023 23.0707 17.4843 22.8954 17.1753 22.5864C16.8663 22.2774 16.691 21.8593 16.6872 21.4223C16.6834 20.9853 16.8514 20.5643 17.155 20.25L23.7383 13.6667H1.66667C1.22464 13.6667 0.800716 13.4911 0.488155 13.1785C0.175595 12.866 0 12.442 0 12C0 11.558 0.175595 11.1341 0.488155 10.8215C0.800716 10.5089 1.22464 10.3333 1.66667 10.3333H23.7383L17.155 3.75C16.9958 3.59626 16.8688 3.41235 16.7815 3.20901C16.6941 3.00567 16.6482 2.78697 16.6462 2.56567C16.6443 2.34437 16.6865 2.12491 16.7703 1.92008C16.8541 1.71525 16.9779 1.52917 17.1343 1.37268C17.2908 1.21619 17.4769 1.09243 17.6817 1.00863C17.8866 0.924831 18.106 0.882661 18.3273 0.884584C18.5486 0.886507 18.7673 0.932485 18.9707 1.01983C19.174 1.10718 19.3579 1.23415 19.5117 1.39334Z" fill="#101013"/>
</svg>
