<svg width="30" height="24" viewBox="0 0 30 24" fill="none" xmlns="http://www.w3.org/2000/svg">
<path d="M1.06 10.8217C0.747547 11.1343 0.572021 11.5581 0.572021 12.0001C0.572021 12.442 0.747547 12.8658 1.06 13.1784L10.4883 22.6067C10.8027 22.9103 11.2237 23.0783 11.6607 23.0745C12.0977 23.0707 12.5157 22.8954 12.8247 22.5864C13.1337 22.2774 13.309 21.8594 13.3128 21.4224C13.3166 20.9854 13.1486 20.5644 12.845 20.2501L6.26167 13.6667H28.3333C28.7754 13.6667 29.1993 13.4911 29.5118 13.1786C29.8244 12.866 30 12.4421 30 12.0001C30 11.558 29.8244 11.1341 29.5118 10.8215C29.1993 10.509 28.7754 10.3334 28.3333 10.3334H6.26167L12.845 3.75006C13.1486 3.43572 13.3166 3.01472 13.3128 2.57772C13.309 2.14073 13.1337 1.72271 12.8247 1.41369C12.5157 1.10468 12.0977 0.929397 11.6607 0.9256C11.2237 0.921803 10.8027 1.08979 10.4883 1.39339L1.06 10.8217Z" fill="#101013"/>
</svg>
